<?xml version="1.0" encoding="utf-8"?>
<!-- Generator: Adobe Illustrator 19.0.0, SVG Export Plug-In . SVG Version: 6.00 Build 0)  -->
<svg version="1.1" xmlns="http://www.w3.org/2000/svg" x="0px" y="0px"
	 viewBox="0 0 600 600" enable-background="new 0 0 600 600" xml:space="preserve">
<g id="FLOOR">
	<g id="XMLID_499_">
		<g id="XMLID_227_">
			<path id="XMLID_238_" fill="#1C3177" d="M205.5,469.2c-7.1-0.5-28,12.2,56.4,15.1s145.3-1.1,163.6-6.8c18.3-5.8,4.3-9-2.9-9.3
				S205.5,469.2,205.5,469.2z"/>
			<ellipse id="XMLID_233_" fill="#1C3177" cx="371.3" cy="496.2" rx="23.7" ry="4"/>
			<ellipse id="XMLID_232_" fill="#1C3177" cx="171.5" cy="472.8" rx="43.5" ry="5.6"/>
			<ellipse id="XMLID_231_" fill="#1C3177" cx="442.8" cy="489.3" rx="23.7" ry="4"/>
			<ellipse id="XMLID_230_" fill="#1C3177" cx="194.5" cy="488.5" rx="16.8" ry="2.8"/>
			<path id="XMLID_229_" fill="#1C3177" d="M463.8,467.2c-11.6,0.5-9.6,7.5,16.7,8c23.3,0.4,46.2-0.6,51.3-3.7
				c5.4-3.3-7.9-4.6-16.9-4.2C512.9,467.3,463.8,467.2,463.8,467.2z"/>
		</g>
	</g>
</g>
<g id="FOUR">
	<g id="XMLID_517_">
		<path id="XMLID_236_" fill="#BECDFC" d="M75.7,351.5l12-77.9c0.9-8.4,8.1-14.8,16.5-14.8h2.2c9.6,0,17.2,8.1,16.6,17.7l-9,55
			c-0.1,2.2,1.6,4.1,3.8,4.1h29c3.2,0,5.7-2.5,5.8-5.7l4.5-55c0.1-9.1,7.5-16.4,16.6-16.4h4.7c9,0,12.6,7.2,12.8,16.2l4.7,188.9
			c0.1,4.2-3.3,7.7-7.6,7.7h-27c-4.1,0-7.5-3.3-7.6-7.5l-1.3-92.3h-59C82.9,371.4,74.6,362.1,75.7,351.5z"/>
		<path id="XMLID_235_" fill="#8EA6F4" d="M87.7,351.5l8.6-77.9c0.9-8.4,8.1-14.8,16.5-14.8h0c9.6,0,17.2,8.1,16.6,17.7l-3.4,55
			c-0.1,2.2,1.6,4.1,3.8,4.1h29c3.2,0,5.7-2.5,5.8-5.7l0.7-55c0.1-9.1,7.5-16.4,16.6-16.4h4.7c9,0,16.4,7.2,16.6,16.2l4.7,188.9
			c0.1,4.2-3.3,7.7-7.6,7.7h-27c-4.1,0-7.5-3.3-7.6-7.5l-1.3-92.3h-59C94.9,371.4,86.6,362.1,87.7,351.5z"/>
	</g>
	<g id="XMLID_516_">
		<path id="XMLID_248_" fill="#BECDFC" d="M389.3,351.5l12-77.9c0.9-8.4,8.1-14.8,16.5-14.8h2.2c9.6,0,17.2,8.1,16.6,17.7l-9,55
			c-0.1,2.2,1.6,4.1,3.8,4.1h29c3.2,0,5.7-2.5,5.8-5.7l4.5-55c0.1-9.1,7.5-16.4,16.6-16.4h4.7c9,0,12.6,7.2,12.8,16.2l4.7,188.9
			c0.1,4.2-3.3,7.7-7.6,7.7h-27c-4.1,0-7.5-3.3-7.6-7.5l-1.3-92.3h-59C396.5,371.4,388.1,362.1,389.3,351.5z"/>
		<path id="XMLID_247_" fill="#8EA6F4" d="M401.3,351.5l8.6-77.9c0.9-8.4,8.1-14.8,16.5-14.8h0c9.6,0,17.2,8.1,16.6,17.7l-3.4,55
			c-0.1,2.2,1.6,4.1,3.8,4.1h29c3.2,0,5.7-2.5,5.8-5.7l0.7-55c0.1-9.1,7.5-16.4,16.6-16.4h4.7c9,0,16.4,7.2,16.6,16.2l4.7,188.9
			c0.1,4.2-3.3,7.7-7.6,7.7h-27c-4.1,0-7.5-3.3-7.6-7.5l-1.3-92.3h-59C408.5,371.4,400.1,362.1,401.3,351.5z"/>
	</g>
</g>
<g id="PLANT_2">
	<g id="XMLID_518_">
		<path id="XMLID_522_" fill="#FEC272" d="M429.7,461.2c-1.1,5.3-5.8,9-11.2,9h-70.2c-7.8,0-13.4-7.7-11-14.8
			c0.2-0.5,0.4-1.1,0.7-1.6c0.1-0.2,0.3-0.5,0.4-0.7c4.7-7.8,15.2-2.6,15.6-2.4c0-0.1-0.2-0.3-0.3-0.7c-0.9-1.9-2.8-7.4,1.9-9.1
			c5.8-2.1,11.4,4,11.4,4s3.2-18.2,16.6-18.2s9.2,18.5,9.2,18.5s7.4-11.6,14.3-8.2c6.7,3.4,2,13.4,1.9,13.7c0.4-0.3,11-7.5,18.2,0.8
			C430,454.7,430.3,458.2,429.7,461.2z"/>
		<path id="XMLID_521_" fill="#FF8D76" d="M417.8,470.2h-69.4c-7.8,0-13.4-7.7-11-14.8c0.8,2.1,2.2,4.5,4.8,6.6
			c6.4,5.3,14,1.2,14,1.2s0.5-9.2,6-9.2c5.5,0,6.9,3.7,6.9,3.7s4.8-9,11.5-9.2c6.7-0.2,7.4,9,7.4,9s3.5-3.7,6.7-2.8
			c3.2,0.9,2.1,6.4,2.1,6.4s7.4-3.5,14.7-0.5C416.4,462.7,417.5,467.4,417.8,470.2z"/>
		<path id="XMLID_520_" fill="#FFD29C" d="M429.7,461.2c-1.1,5.3-5.8,9-11.2,9h-0.7c0,0,11.5-9.5,6.7-16.5
			c-4.8-6.9-18.6,0.2-18.9,0.3c0.1-0.5,3.7-12-0.9-13.9c-4.7-2-13.2,10.4-13.2,10.4s0.5-19.1-8.9-20.1c-10.1-1.1-14,18.8-14,18.8
			s-6.8-7.5-11.5-5.9c-4.6,1.6-2.8,7.6-2.7,7.9l-0.7-1.2c-0.9-1.9-2.8-7.4,1.9-9.1c5.8-2.1,11.4,4,11.4,4s3.2-18.2,16.6-18.2
			s9.2,18.5,9.2,18.5s7.4-11.6,14.3-8.2c6.7,3.4,2,13.4,1.9,13.7c0.4-0.3,11-7.5,18.2,0.8C430,454.7,430.3,458.2,429.7,461.2z"/>
	</g>
</g>
<g id="STONE">
	<g id="XMLID_515_">
		<g id="XMLID_502_">
			<path id="XMLID_237_" fill="#E1ECFF" d="M227.9,470.2c0,0-2.2-86.3-2.2-135.9s25.9-79.1,78.2-79.1c43.1,0,61.7,10.8,66,81.3
				s6.1,133.7,6.1,133.7H227.9z"/>
			<path id="XMLID_239_" fill="#CDE0FC" d="M253,470.2c0,0-1.8-86.3-1.8-135.9s22.1-79.1,58.9-79.1s60.4,10.8,64.1,81.3
				s5.2,133.7,5.2,133.7H253z"/>
		</g>
		<g id="XMLID_504_">
			<path id="XMLID_506_" fill="#E1ECFF" d="M293,386.7c-8.1-2.3-13.7,16-7,20.3C292.7,411.3,302.6,389.4,293,386.7z"/>
			<path id="XMLID_511_" fill="#E1ECFF" d="M355.4,367.4c-5.4-1.5-9.2,10.7-4.7,13.6C355.2,383.8,361.9,369.2,355.4,367.4z"/>
			<path id="XMLID_512_" fill="#E1ECFF" d="M290.3,296.8c-5.4-1.5-9.2,10.7-4.7,13.6C290.1,313.2,296.8,298.6,290.3,296.8z"/>
			<path id="XMLID_540_" fill="#E1ECFF" d="M318.2,314.5c-6.3-1.3-10.6,9.3-5.4,11.8S325.7,316.1,318.2,314.5z"/>
			<path id="XMLID_513_" fill="#E1ECFF" d="M342.9,287.3c-7.6-2.1-13,15.1-6.6,19.2S352,289.9,342.9,287.3z"/>
			<path id="XMLID_510_" fill="#E1ECFF" d="M345.3,412.7c-10.9-3.1-18.5,21.5-9.5,27.4C344.9,445.8,358.3,416.3,345.3,412.7z"/>
			<path id="XMLID_9_" fill="#99ADF9" d="M291,385.5c-8.1-2.3-13.7,16-7,20.3C290.7,410.1,300.6,388.2,291,385.5z"/>
			<path id="XMLID_8_" fill="#99ADF9" d="M353.4,366.1c-5.4-1.5-9.2,10.7-4.7,13.6C353.2,382.6,359.9,367.9,353.4,366.1z"/>
			<path id="XMLID_7_" fill="#99ADF9" d="M288.3,295.5c-5.4-1.5-9.2,10.7-4.7,13.6C288.1,312,294.8,297.3,288.3,295.5z"/>
			<path id="XMLID_6_" fill="#99ADF9" d="M316.2,313.2c-6.3-1.3-10.6,9.3-5.4,11.8S323.7,314.8,316.2,313.2z"/>
			<path id="XMLID_5_" fill="#99ADF9" d="M340.9,286.1c-7.6-2.1-13,15.1-6.6,19.2S350,288.6,340.9,286.1z"/>
			<path id="XMLID_4_" fill="#99ADF9" d="M343.3,411.4c-10.9-3.1-18.5,21.5-9.5,27.4C342.9,444.6,356.3,415.1,343.3,411.4z"/>
		</g>
		<g id="XMLID_514_">
			<path id="XMLID_382_" fill="#CDE0FC" d="M256.4,302.6c-8.1-2.4-13.7,17.3-7,21.9S266.1,305.5,256.4,302.6z"/>
			<path id="XMLID_508_" fill="#CDE0FC" d="M241.5,361.6c-6.6-2-11.2,14.1-5.7,17.9C241.2,383.3,249.4,364,241.5,361.6z"/>
			<path id="XMLID_509_" fill="#CDE0FC" d="M267.8,268.1c-6.6-2-11.2,14.1-5.7,17.9C267.6,289.8,275.7,270.5,267.8,268.1z"/>
		</g>
		<g id="XMLID_525_">
			<path id="XMLID_528_" fill="#99ADF9" d="M292,365h-8.3c-0.5,0-0.7-0.4-0.9-0.9l-5.6-10.8l-0.3-0.2c-0.4,0-1.9,0-2.3,0v11
				c0,0.5-0.4,0.9-0.9,0.9h-7.3c-0.5,0-0.9-0.4-0.9-0.9v-29.4c0-2.2,0.7-2.7,2.6-3c1.8-0.3,6.3-0.6,9.5-0.6
				c8.4,0,14.1,2.7,14.1,10.9v0.7c0,4.8-2.7,7.7-5.5,8.9l6.5,12.2c0.1,0.2,0.1,0.4,0.1,0.5C292.7,364.7,292.4,365,292,365z
				 M282.5,342c0-2.1-1.5-3.2-4.5-3.2c-0.3,0-3.2,0.1-3.5,0.1v7.2c0.2,0,3,0,3.3,0c3.5,0,4.7-1.2,4.7-3.3V342z"/>
			<path id="XMLID_531_" fill="#99ADF9" d="M301,365h-0.4c-2.2,0-4-1.8-4-4v0c0-2.2,1.8-4,4-4h0.4c2.2,0,4,1.8,4,4l0,0
				C305.1,363.2,303.3,365,301,365z"/>
			<path id="XMLID_533_" fill="#99ADF9" d="M318.6,365h-7.4c-0.5,0-0.9-0.4-0.9-0.9v-31.7c0-0.5,0.4-0.9,0.9-0.9h7.4
				c0.5,0,0.9,0.4,0.9,0.9v31.7C319.5,364.6,319.1,365,318.6,365z"/>
			<path id="XMLID_535_" fill="#99ADF9" d="M329.2,365h-0.4c-2.2,0-4.1-1.8-4.1-4.1v0c0-2.2,1.8-4,4-4h0.4c2.2,0,4.1,1.8,4.1,4.1v0
				C333.2,363.2,331.4,365,329.2,365z"/>
			<path id="XMLID_537_" fill="#99ADF9" d="M350.7,354.1c-1,0-2-0.1-3.2-0.1v10.1c0,0.5-0.4,0.9-0.9,0.9h-7.2
				c-0.5,0-0.9-0.3-0.9-0.8v-29.5c0-2.2,0.7-2.7,2.6-3c2.3-0.4,6.3-0.6,9.5-0.6c6.7,0,14,2.3,14,11.3v0.4
				C364.6,351.6,357.2,354.1,350.7,354.1z M355.5,342.4c0-2.6-1.8-3.6-4.8-3.6c-0.3,0-2.9,0-3.2,0v7.7c0.2,0,2.9,0,3.2,0
				c3.2,0,4.8-1.2,4.8-3.7V342.4z"/>
		</g>
	</g>
</g>
<g id="PLANT_1">
	<g id="XMLID_241_">
		<path id="XMLID_527_" fill="#FEC272" d="M317.1,457.1c-1.7,8.4-9.3,14.3-17.9,14.3H187.2c-12.5,0-21.4-12.3-17.6-23.6
			c0.3-0.9,0.6-1.7,1.1-2.6c0.2-0.4,0.4-0.8,0.7-1.2c7.5-12.4,24.2-4.1,24.9-3.8c0-0.1-0.2-0.5-0.5-1.1c-1.4-3-4.5-11.8,3.1-14.5
			c9.3-3.4,18.1,6.3,18.1,6.3s5.1-29.1,26.6-29.1s14.8,29.5,14.8,29.5s11.8-18.6,22.8-13.1c10.8,5.4,3.2,21.3,3,21.9
			c0.7-0.5,17.5-11.9,29.1,1.3C317.5,446.6,318.1,452.1,317.1,457.1z"/>
		<path id="XMLID_526_" fill="#FF8D76" d="M298.1,471.4H187.2c-12.5,0-21.4-12.3-17.6-23.6c1.3,3.4,3.6,7.2,7.6,10.6
			c10.3,8.5,22.4,1.8,22.4,1.8s0.7-14.7,9.6-14.7c8.8,0,11,5.9,11,5.9s7.7-14.3,18.4-14.7c10.7-0.4,11.8,14.3,11.8,14.3
			s5.5-5.9,10.7-4.4c5.1,1.5,3.3,10.3,3.3,10.3s11.8-5.5,23.5-0.7C295.9,459.4,297.7,466.9,298.1,471.4z"/>
		<path id="XMLID_524_" fill="#FFD29C" d="M317.1,457.1c-1.7,8.4-9.3,14.3-17.9,14.3h-1.2c0,0,18.4-15.1,10.7-26.3
			c-7.6-11.1-29.7,0.3-30.1,0.5c0.2-0.7,5.9-19.1-1.5-22.2c-7.5-3.1-21.1,16.5-21.1,16.5s0.7-30.5-14.2-32.2
			c-16.1-1.8-22.4,30-22.4,30s-10.8-11.9-18.4-9.4c-7.3,2.5-4.4,12.1-4.2,12.7l-1.2-1.9c-1.4-3-4.5-11.8,3.1-14.5
			c9.3-3.4,18.1,6.3,18.1,6.3s5.1-29.1,26.6-29.1s14.8,29.5,14.8,29.5s11.8-18.6,22.8-13.1c10.8,5.4,3.2,21.3,3,21.9
			c0.7-0.5,17.5-11.9,29.1,1.3C317.5,446.6,318.1,452.1,317.1,457.1z"/>
	</g>
</g>
<g id="EFFECT_2">
	<path id="XMLID_234_" fill="#E1EAF6" d="M244.3,185.3c0,0,1.4-0.1,3.9-0.4c2.5-0.2,6.1-0.5,10.4-0.8c4.3-0.3,9.4-0.6,14.8-0.8
		c2.7-0.1,5.5-0.2,8.4-0.3c2.9-0.1,5.8-0.1,8.6-0.2c5.8-0.1,11.6-0.2,17.1-0.1c5.4,0,10.5,0.2,14.9,0.3c4.3,0.2,8,0.4,10.5,0.6
		c1.3,0.1,2.3,0.2,2.9,0.2c0.7,0.1,1.1,0.1,1.1,0.1c0.7,0.1,1.1,0.4,1,0.8c-0.1,0.3-0.7,0.6-1.3,0.6l-0.1,0c0,0-1.4,0-3.9-0.1
		c-2.5-0.1-6.1-0.1-10.4-0.1c-4.3,0-9.3,0-14.7,0c-2.7,0-5.5,0.1-8.3,0.1c-2.8,0-5.7,0.1-8.6,0.1c-5.8,0.1-11.5,0.2-16.9,0.4
		c-5.4,0.1-10.4,0.3-14.7,0.4c-8.6,0.3-14.4,0.5-14.4,0.5c-0.7,0-1.3-0.3-1.3-0.7C243.2,185.7,243.6,185.3,244.3,185.3z"/>
</g>
<g id="EFFECT_1">
	<g id="XMLID_495_">
		<path id="XMLID_245_" fill="#E1EAF6" d="M220,192.3c0,0-0.5,0.1-1.4,0.4c-0.9,0.3-2.2,0.7-3.7,1.4c-0.7,0.3-1.6,0.8-2.2,1.3
			c-0.4,0.2-0.6,0.5-0.9,0.8c-0.2,0.3-0.3,0.5-0.3,0.7c0,0.2,0.1,0.3,0.2,0.5c0.1,0.1,0.2,0.2,0.4,0.4c0.1,0.1,0.3,0.3,0.5,0.4
			c0.8,0.6,2,1.2,3.2,1.8c0.7,0.3,1.3,0.6,2.1,0.8l0.5,0.2l0.3,0.1l0.1,0c0,0-0.2-0.1-0.1,0l0,0l0.1,0c0.4,0.1,0.8,0.2,1.2,0.4
			c0.8,0.3,1.6,0.5,2.5,0.8c0.8,0.2,1.6,0.4,2.4,0.6c3.3,0.8,7,1.5,10.8,2.1c3.9,0.5,7.8,1,12,1.4c4.1,0.4,8.3,0.6,12.5,0.9
			c4.2,0.2,8.4,0.4,12.6,0.5c4.2,0.1,8.3,0.3,12.2,0.3c4,0,7.9,0.2,11.5,0.2c3.6,0,7.1,0.1,10.3,0.1c12.8,0,21.3,0,21.3,0h0
			c0.7,0,1.3,0.5,1.3,1c0,0.5-0.5,0.9-1.1,1c0,0-0.5,0.1-1.5,0.2c-1,0.1-2.5,0.3-4.3,0.5c-3.7,0.4-9,0.9-15.5,1.3
			c-3.2,0.2-6.7,0.4-10.4,0.5c-1.8,0.1-3.7,0.1-5.7,0.2c-2,0.1-3.9,0.1-5.9,0.1c-4,0-8.2,0.1-12.4,0c-4.2-0.1-8.5-0.2-12.9-0.4
			c-4.3-0.2-8.6-0.6-12.9-1c-4.2-0.4-8.4-1.1-12.4-1.8c-2-0.4-4-0.8-5.9-1.2c-1.9-0.5-3.8-0.9-5.6-1.5c-0.9-0.3-1.8-0.6-2.7-0.8
			c-0.8-0.3-1.6-0.6-2.4-0.9c-0.4-0.2-0.8-0.3-1.2-0.5l-0.1-0.1l-0.2-0.1l-0.1,0l-0.3-0.1l-0.6-0.3c-0.8-0.3-1.5-0.7-2.3-1.1
			c-1.5-0.8-2.9-1.6-4.1-2.7c-0.3-0.3-0.6-0.6-0.9-0.9c-0.3-0.3-0.5-0.7-0.7-1.1c-0.4-0.8-0.5-1.8-0.3-2.7c0.3-0.9,0.8-1.5,1.4-2.1
			c0.6-0.5,1.1-0.9,1.7-1.2c1.1-0.6,2.2-1,3.1-1.3c1.9-0.6,3.4-0.9,4.4-1.1c1-0.2,1.6-0.2,1.6-0.2l0,0c0.7-0.1,1.3,0.3,1.4,0.9
			C221,191.7,220.6,192.2,220,192.3z"/>
	</g>
</g>
<g id="GHOST">
	<g id="XMLID_130_">
		<g id="XMLID_498_">
			<g id="XMLID_497_">
				<path id="XMLID_251_" fill="#FF97C9" d="M425.5,207.6c-1.4,3.2-2.8,6.2-4.2,9c-11.7,22.6-25.3,30.6-30.7,29.5
					c-6-1.3-3.1-7.5-7.2-10.1c-4.2-2.6-15.7,7-23.3,2.2c-7.5-4.8-4.8-12.7-12.1-13.3c-7.2-0.7-15,2.2-22.5-2.1s-4.7-7.7,9.4-18.8
					c14.2-11.1,22.3-29.3,26-49.2c2.9-15.6,9.5-24.3,18.3-27.7c8.9-3.4,20.1-1.2,31.8,5C434.2,144.4,438,178.1,425.5,207.6z"/>
				<path id="XMLID_249_" fill="#FF8AC7" d="M421.3,216.5c-11.7,22.6-25.3,30.6-30.7,29.5c-6-1.3-3.1-7.5-7.2-10.1
					c-4.2-2.6-15.7,7-23.3,2.2c-7.5-4.8-4.8-12.7-12.1-13.3c-7.2-0.7-15,2.2-22.5-2.1s-4.7-7.7,9.4-18.8
					c14.2-11.1,22.3-29.3,26-49.2c2.9-15.6,9.5-24.3,18.3-27.7c-2.2,4.7-6.7,15.5-11,32.2c-5.4,20.6-7.5,32.1-4.2,42.7
					c3.3,10.6,10.2,12.9,20.3,10.2c10.1-2.7,6,10.6,19,10.5C409.7,222.6,416.3,219.6,421.3,216.5z"/>
			</g>
			<g id="XMLID_496_">
				<path id="XMLID_253_" fill="#FF97C9" d="M374.3,193C374.3,193,374.3,193,374.3,193c-0.4,0.1-13.4,3.2-22,3.8
					c-8.6,0.6-19.6,0.1-23-5.6c-1.6-2.7-1.4-4.4,0.4-5.9c2.1-1.7,6.4-3,12.7-4.8c11.9-3.4,25.5-10.3,25.5-10.3
					C386.4,174.8,374.3,193,374.3,193z"/>
				<path id="XMLID_250_" fill="#FF8AC7" d="M374.3,193C374.3,193,374.3,193,374.3,193c-0.4,0.1-13.4,3.2-22,3.8
					c-8.6,0.6-19.6,0.1-23-5.6c-1.6-2.7-1.4-4.4,0.4-5.9c1.9,1.7,5,3.5,9.9,5C353.3,194.5,374.3,193,374.3,193z"/>
			</g>
		</g>
		<g id="XMLID_115_">
			<path id="XMLID_159_" fill="#F774B9" d="M350.3,198.4c-3.5,0-7.1-0.1-10.4-0.5c-10.2-1-12.6-6.9-13.1-8.4
				c-0.4-0.6-0.6-1.4-0.4-2.3c0.5-2.2,3.2-4.1,8.1-5.8c9.4-3.3,15.6-5.6,23.2-8.7c8.1-3.4,10.6-3.3,11-3.2c0.8,0.1,1.4,0.8,1.3,1.7
				c-0.1,0.8-0.8,1.4-1.7,1.3c0,0-2.2,0-9.5,3c-7.6,3.2-13.9,5.4-23.3,8.8c-5.8,2-6.2,3.6-6.2,3.7c0.2,0.2,0.3,0.4,0.3,0.6
				c0,0.2,1.4,5.5,10.5,6.4c10.4,1,23.2,0.3,29.2-1.5c5.4-1.7,6.8-4.6,7.6-9.9c0.1-0.8,0.9-1.4,1.7-1.3c0.8,0.1,1.4,0.9,1.3,1.7
				c-0.9,6.1-2.9,10.2-9.7,12.4C365.9,197.6,358.2,198.4,350.3,198.4z"/>
		</g>
		<g id="XMLID_119_">
			<path id="XMLID_157_" fill="#F774B9" d="M391.6,247.2c-0.6,0-1.3-0.1-1.8-0.3c-3.2-1.1-4-2.9-4.9-6.6c-0.2-0.9-0.8-2.5-2.2-3.2
				c-1.3-0.6-3.1-0.4-5.2,0.6c-7.3,3.4-13.7,3.8-19,1c-3.5-1.8-4.8-5.4-5.8-8.2c-0.8-2.1-1.5-4-2.7-4.3c-1.7-0.5-4.6-0.2-7.6,0
				c-4.1,0.3-8.7,0.7-12.9-0.2c-6-1.2-8-3.7-8.7-5.6c-0.6-1.5-0.7-3.9,1.7-7c3.7-4.7,18.7-17.5,19.4-18c0.6-0.5,1.6-0.5,2.1,0.2
				c0.5,0.6,0.5,1.6-0.2,2.1c-0.2,0.1-15.4,13.1-19,17.6c-0.9,1.1-1.8,2.7-1.2,4.1c0.6,1.6,3,3,6.5,3.7c3.9,0.8,8.2,0.4,12.1,0.1
				c3.5-0.3,6.5-0.5,8.7,0.1c2.7,0.8,3.7,3.5,4.7,6.2c1,2.6,2,5.3,4.4,6.6c4.4,2.3,9.9,2,16.3-1c3.8-1.8,6.3-1.3,7.8-0.6
				c1.9,0.9,3.2,2.8,3.8,5.3c0.8,3.5,1.3,3.9,3,4.4c1.7,0.6,5.2-2.1,6.7-3c0.7-0.4,1.6-0.2,2.1,0.5c0.4,0.7,0.2,1.6-0.5,2.1
				C398.5,243.9,394.9,247.2,391.6,247.2z"/>
		</g>
		<g id="XMLID_135_">
			<path id="XMLID_156_" fill="#F774B9" d="M356,176.3c-0.2,0-0.3,0-0.5-0.1c-0.8-0.3-1.2-1.1-1-1.9c0-0.1,2.5-7.8,4-15.3
				c1.3-6.5,4-18.2,8.3-24c5.1-7,14.9-8.8,15.3-8.9c0.8-0.2,1.6,0.2,1.9,1c0.2,0.8-0.2,1.6-1,1.9c-0.1,0-9.3,1.7-13.8,7.8
				c-4.1,5.5-6.8,17.8-7.7,22.8c-1.5,7.7-4,15.6-4,15.7C357.2,175.8,356.6,176.3,356,176.3z"/>
		</g>
	</g>
</g>
<g id="MOUTH">
	<g id="XMLID_244_">
		<path id="XMLID_507_" fill="#1C3177" d="M413.2,199.3c-0.4,0.8-1,1.6-1.7,2.3c-5.5,6.2-14.9,9.4-17.7,5.4
			c-1.6-2.3-1.9-4.7-1.2-7.1c1.7-6.6,10.2-12.7,15.5-12.6C414.4,187.3,416.5,193.5,413.2,199.3z"/>
		<path id="XMLID_505_" fill="#F774B9" d="M413.2,199.3c-0.4,0.8-1,1.6-1.7,2.3c-5.5,6.2-14.9,9.4-17.7,5.4
			c-1.6-2.3-1.9-4.7-1.2-7.1C397.7,196.4,411.9,196.2,413.2,199.3z"/>
	</g>
</g>
<g id="EYE_2B">
	<path id="XMLID_243_" fill="#FFFFFF" d="M422.7,156.6c-4.4,0-8.7,8.7-5,14.5c3.7,5.8,9.8,2.4,11.1-2.6
		C430.3,162.5,428.9,156.5,422.7,156.6z"/>
</g>
<g id="EYE_1A_1_">
	<path id="XMLID_118_" fill="#1C3177" d="M420.4,164.2c-2.6-0.3-5.2,3.8-3.1,7c2.1,3.2,5.7,1.9,6.5-0.6
		C424.8,167.7,424.1,164.5,420.4,164.2z"/>
</g>
<g id="EYE_1B">
	<path id="XMLID_242_" fill="#FFFFFF" d="M399.4,152c-4.7-0.6-10.8,7.9-7.7,14.8s10.1,4.1,12.3-1C406.7,159.6,406.2,152.9,399.4,152
		z"/>
</g>
<g id="EYE_1A">
	<path id="XMLID_116_" fill="#1C3177" d="M394.1,159.9c-2.6-0.3-5.2,3.8-3.1,7c2.1,3.2,5.7,1.9,6.5-0.6
		C398.5,163.4,397.8,160.3,394.1,159.9z"/>
</g>
</svg>
