<svg version="1.1" xmlns="http://www.w3.org/2000/svg" xmlns:xlink="http://www.w3.org/1999/xlink" width="654" height="185" viewBox="538 296 654 185">
    <g style="mix-blend-mode: source-over;" transform="matrix(1.8939061849306573,-0.0033519740297848133,0.003351974029784812,1.8939061849306567,1025.1044660658104,-363.63695655385504)">
        <path d="M-159.6,388.9c-5.2-9-10.3-18.1-15.7-27c-3.2-5.3-8-8.2-14.3-8.2c-10.3-0.1-20.8,0-31.1,0c-1.6,0-3.2,0.2-4.7,0.7  c-4,1.4-7.3,3.7-9.5,7.5c-5.1,8.8-10.2,17.8-15.3,26.6c-1.4,2.3-2.1,4.8-2.3,7.5c-0.2,3.3,0.3,6.4,2,9.3  c5.2,8.9,10.4,17.9,15.5,26.8c1.4,2.6,3.4,4.5,5.9,5.9c2.3,1.4,4.9,2.4,7.7,2.4h31.8c1.5,0,3-0.2,4.4-0.6c4.2-1.4,7.6-3.6,9.8-7.6  c5.2-8.9,10.3-17.9,15.5-26.8c1.4-2.4,2.1-5,2.2-7.8C-157.4,394.5-158,391.6-159.6,388.9z M-215.5,409.9c1,1.1,1,2.7-0.1,3.7  c-0.5,0.5-1.2,0.7-1.8,0.7c-0.7,0-1.4-0.3-1.9-0.8l-13.9-14.7c-1-1-1-2.6,0-3.6l13.9-14.7c1-1.1,2.7-1.1,3.7-0.1  c1.1,1,1.1,2.7,0.1,3.7l-12.2,12.9L-215.5,409.9z M-198.9,383.1l-7,29.1c-0.3,1.2-1.4,2-2.6,2c-0.2,0-0.4,0-0.6-0.1  c-1.4-0.3-2.3-1.8-1.9-3.2l7-29.1c0.3-1.4,1.8-2.3,3.2-1.9C-199.4,380.2-198.6,381.7-198.9,383.1z M-176.8,398.8l-13.9,14.7  c-0.5,0.6-1.2,0.8-1.9,0.8c-0.7,0-1.3-0.2-1.8-0.7c-1.1-1-1.1-2.7-0.1-3.7l12.2-12.9l-12.2-12.9c-1-1.1-1-2.7,0.1-3.7  c1.1-1,2.7-1,3.7,0.1l13.9,14.7C-175.8,396.2-175.8,397.8-176.8,398.8z" style="fill: #b000ff; fill-opacity: 1;"></path>
    </g>
    <g style="mix-blend-mode: source-over;" transform="matrix(1,0,0,1,684,307)">
        <g>
            <g style="paint-order: stroke fill markers;">
                <path d="M 85.6956431274414 85.93875L 85.6956431274414 85.93875Q 82.1283931274414 85.93875 79.03051812744141 84.7653125Q 75.93264312744141 83.591875 73.67964312744141 81.4796875Q 71.42664312744141 79.3675 70.1593306274414 76.55125Q 68.8920181274414 73.735 68.8920181274414 70.3555L 68.8920181274414 70.3555Q 68.8920181274414 66.882125 70.44095562744141 63.925062499999996Q 71.9898931274414 60.968 74.7592056274414 58.90275Q 77.5285181274414 56.8375 81.37739312744141 55.6640625Q 85.22626812744141 54.490625 89.82614312744141 54.490625L 89.82614312744141 54.490625Q 93.11176812744141 54.490625 96.25658062744141 55.053875000000005Q 99.40139312744141 55.617125 101.8421431274414 56.64975L 101.8421431274414 56.64975L 101.8421431274414 53.8335Q 101.8421431274414 48.952 99.0728306274414 46.3235Q 96.30351812744141 43.695 90.85876812744141 43.695L 90.85876812744141 43.695Q 86.9160181274414 43.695 83.16101812744141 45.103125Q 79.4060181274414 46.51125 75.46326812744141 49.233624999999996L 75.46326812744141 49.233624999999996L 71.6143931274414 41.25425Q 81.0957681274414 34.964625 92.0791431274414 34.964625L 92.0791431274414 34.964625Q 102.6870181274414 34.964625 108.5542056274414 40.1746875Q 114.4213931274414 45.38475 114.4213931274414 55.241625L 114.4213931274414 55.241625L 114.4213931274414 70.54325Q 114.4213931274414 72.514625 115.1254556274414 73.3595Q 115.8295181274414 74.204375 117.4253931274414 74.29825L 117.4253931274414 74.29825L 117.4253931274414 85Q 114.23364312744141 85.657125 111.8867681274414 85.657125L 111.8867681274414 85.657125Q 108.3195181274414 85.657125 106.39508062744142 84.06125Q 104.4706431274414 82.465375 104.0012681274414 79.836875L 104.0012681274414 79.836875L 103.7196431274414 77.11449999999999Q 100.4340181274414 81.43275 95.74026812744141 83.68575Q 91.0465181274414 85.93875 85.6956431274414 85.93875ZZM 89.2628931274414 76.739L 89.2628931274414 76.739Q 92.45464312744141 76.739 95.31783062744141 75.6125Q 98.1810181274414 74.486 99.77689312744141 72.60849999999999L 99.77689312744141 72.60849999999999Q 101.8421431274414 71.012625 101.8421431274414 69.04125L 101.8421431274414 69.04125L 101.8421431274414 63.40875Q 99.5891431274414 62.563874999999996 96.96064312744141 62.0475625Q 94.33214312744141 61.53125 91.8913931274414 61.53125L 91.8913931274414 61.53125Q 87.0098931274414 61.53125 83.9120181274414 63.7373125Q 80.81414312744141 65.943375 80.81414312744141 69.322875L 80.81414312744141 69.322875Q 80.81414312744141 72.514625 83.2548931274414 74.6268125Q 85.6956431274414 76.739 89.2628931274414 76.739ZZM 171.2157681274414 73.17175L 185.86026812744143 35.8095L 197.78239312744142 35.8095L 177.22376812744142 85L 166.8975181274414 85L 158.4487681274414 63.40875L 150.09389312744142 85L 139.7676431274414 85L 119.30289312744141 35.8095L 131.13114312744142 35.8095L 145.7756431274414 73.17175L 151.78364312744142 57.213L 143.1471431274414 35.903375L 153.2856431274414 35.903375L 158.4487681274414 51.01725L 163.70576812744142 35.903375L 173.8442681274414 35.903375L 165.30164312744142 57.213L 171.2157681274414 73.17175ZZM 224.63064312744143 85.93875L 224.63064312744143 85.93875Q 218.71651812744142 85.93875 213.92889312744143 83.9204375Q 209.1412681274414 81.902125 205.76176812744143 78.42875Q 202.38226812744142 74.955375 200.5517056274414 70.3555Q 198.72114312744142 65.755625 198.72114312744142 60.686375L 198.72114312744142 60.686375Q 198.72114312744142 55.429375 200.50476812744142 50.7825625Q 202.28839312744142 46.13575 205.66789312744143 42.6154375Q 209.0473931274414 39.095125 213.8819556274414 37.029875Q 218.71651812744142 34.964625 224.72451812744143 34.964625L 224.72451812744143 34.964625Q 230.73251812744144 34.964625 235.47320562744142 37.029875Q 240.21389312744142 39.095125 243.54645562744142 42.5685Q 246.8790181274414 46.041875 248.61570562744143 50.64175Q 250.35239312744142 55.241625 250.35239312744142 60.217L 250.35239312744142 60.217Q 250.35239312744142 61.437375 250.3054556274414 62.563874999999996Q 250.25851812744142 63.690375 250.07076812744143 64.441375L 250.07076812744143 64.441375L 212.05139312744143 64.441375Q 212.33301812744142 67.3515 213.4595181274414 69.6045Q 214.58601812744143 71.8575 216.3696431274414 73.453375Q 218.15326812744144 75.04925 220.40626812744142 75.894125Q 222.6592681274414 76.739 225.10001812744142 76.739L 225.10001812744142 76.739Q 228.8550181274414 76.739 232.18758062744143 74.9084375Q 235.52014312744143 73.077875 236.74051812744142 70.073875L 236.74051812744142 70.073875L 247.53614312744142 73.077875Q 244.81376812744142 78.710375 238.85270562744142 82.3245625Q 232.89164312744143 85.93875 224.63064312744143 85.93875ZZM 211.86364312744143 56.274249999999995L 237.39764312744143 56.274249999999995Q 236.9282681274414 50.735625 233.31408062744143 47.4030625Q 229.6998931274414 44.0705 224.5367681274414 44.0705L 224.5367681274414 44.0705Q 222.00214312744143 44.0705 219.79608062744143 44.9623125Q 217.59001812744143 45.854125 215.90026812744142 47.45Q 214.21051812744142 49.045875 213.1309556274414 51.298875Q 212.05139312744143 53.551874999999995 211.86364312744143 56.274249999999995L 211.86364312744143 56.274249999999995ZZM 276.6373931274414 85.93875L 276.6373931274414 85.93875Q 270.4416431274414 85.93875 264.5275181274414 83.967375Q 258.6133931274414 81.996 254.3890181274414 78.334875L 254.3890181274414 78.334875L 259.0827681274414 70.449375Q 263.5887681274414 73.641125 267.8600806274414 75.28393750000001Q 272.1313931274414 76.92675 276.3557681274414 76.92675L 276.3557681274414 76.92675Q 280.1107681274414 76.92675 282.26989312744143 75.518625Q 284.4290181274414 74.1105 284.4290181274414 71.482L 284.4290181274414 71.482Q 284.4290181274414 68.8535 281.8943931274414 67.633125Q 279.3597681274414 66.41275 273.6333931274414 64.816875L 273.6333931274414 64.816875Q 268.84576812744143 63.502624999999995 265.4662681274414 62.282250000000005Q 262.0867681274414 61.061875 260.0215181274414 59.5129375Q 257.95626812744143 57.964 257.0175181274414 55.9456875Q 256.07876812744144 53.927375 256.07876812744144 51.111125L 256.07876812744144 51.111125Q 256.07876812744144 47.356125 257.53383062744143 44.352125Q 258.98889312744143 41.348125 261.6173931274414 39.2359375Q 264.24589312744143 37.12375 267.7662056274414 35.99725Q 271.2865181274414 34.87075 275.4170181274414 34.87075L 275.4170181274414 34.87075Q 280.9556431274414 34.87075 285.7902056274414 36.466625Q 290.6247681274414 38.0625 294.66139312744144 41.62975L 294.66139312744144 41.62975L 289.59214312744143 49.233624999999996Q 285.83714312744144 46.417375 282.3168306274414 45.103125Q 278.7965181274414 43.788875 275.3231431274414 43.788875L 275.3231431274414 43.788875Q 272.1313931274414 43.788875 269.9722681274414 45.103125Q 267.81314312744144 46.417375 267.81314312744144 49.3275L 267.81314312744144 49.3275Q 267.81314312744144 50.64175 268.3294556274414 51.486625Q 268.84576812744143 52.3315 269.9722681274414 52.988625Q 271.0987681274414 53.64575 272.9293306274414 54.2559375Q 274.7598931274414 54.866125 277.4822681274414 55.523250000000004L 277.4822681274414 55.523250000000004Q 282.5515181274414 56.8375 286.1657056274414 58.15175Q 289.7798931274414 59.466 292.0798306274414 61.15575Q 294.3797681274414 62.8455 295.45933062744143 65.0515625Q 296.5388931274414 67.257625 296.5388931274414 70.3555L 296.5388931274414 70.3555Q 296.5388931274414 77.583875 291.1880181274414 81.7613125Q 285.83714312744144 85.93875 276.6373931274414 85.93875ZZM 327.4237681274414 85.93875L 327.4237681274414 85.93875Q 321.4157681274414 85.93875 316.62814312744143 83.8735Q 311.84051812744144 81.80825 308.50795562744145 78.2879375Q 305.1753931274414 74.767625 303.3917681274414 70.16775Q 301.6081431274414 65.567875 301.6081431274414 60.498625000000004L 301.6081431274414 60.498625000000004Q 301.6081431274414 55.335499999999996 303.3917681274414 50.735625Q 305.1753931274414 46.13575 308.50795562744145 42.6154375Q 311.84051812744144 39.095125 316.62814312744143 37.029875Q 321.4157681274414 34.964625 327.4237681274414 34.964625L 327.4237681274414 34.964625Q 333.43176812744144 34.964625 338.1724556274414 37.029875Q 342.9131431274414 39.095125 346.2457056274414 42.6154375Q 349.57826812744145 46.13575 351.3618931274414 50.735625Q 353.1455181274414 55.335499999999996 353.1455181274414 60.498625000000004L 353.1455181274414 60.498625000000004Q 353.1455181274414 65.567875 351.3618931274414 70.16775Q 349.57826812744145 74.767625 346.2926431274414 78.2879375Q 343.0070181274414 81.80825 338.21939312744144 83.8735Q 333.43176812744144 85.93875 327.4237681274414 85.93875ZZM 314.56289312744144 60.498625000000004L 314.56289312744144 60.498625000000004Q 314.56289312744144 63.78425 315.5485806274414 66.4596875Q 316.5342681274414 69.135125 318.2709556274414 71.1065Q 320.00764312744144 73.077875 322.3545181274414 74.1574375Q 324.7013931274414 75.237 327.4237681274414 75.237L 327.4237681274414 75.237Q 330.1461431274414 75.237 332.4930181274414 74.1574375Q 334.8398931274414 73.077875 336.57658062744144 71.1065Q 338.3132681274414 69.135125 339.29895562744144 66.41275Q 340.2846431274414 63.690375 340.2846431274414 60.40475L 340.2846431274414 60.40475Q 340.2846431274414 57.213 339.29895562744144 54.490625Q 338.3132681274414 51.76825 336.57658062744144 49.796875Q 334.8398931274414 47.8255 332.4930181274414 46.7459375Q 330.1461431274414 45.666375 327.4237681274414 45.666375L 327.4237681274414 45.666375Q 324.7013931274414 45.666375 322.3545181274414 46.792875Q 320.00764312744144 47.919375 318.2709556274414 49.89075Q 316.5342681274414 51.862125 315.5485806274414 54.5845Q 314.56289312744144 57.306875000000005 314.56289312744144 60.498625000000004ZZM 438.00851812744145 54.302875L 438.00851812744145 85L 425.42926812744145 85L 425.42926812744145 57.40075Q 425.42926812744145 51.486625 423.41095562744147 48.76425Q 421.39264312744143 46.041875 417.82539312744143 46.041875L 417.82539312744143 46.041875Q 414.07039312744143 46.041875 410.78476812744145 48.9050625Q 407.49914312744147 51.76825 406.09101812744143 56.368125L 406.09101812744143 56.368125L 406.09101812744143 85L 393.5117681274414 85L 393.5117681274414 57.40075Q 393.5117681274414 51.486625 391.49345562744145 48.76425Q 389.47514312744147 46.041875 385.90789312744147 46.041875L 385.90789312744147 46.041875Q 382.24676812744144 46.041875 378.91420562744145 48.858125Q 375.58164312744145 51.674375 374.17351812744147 56.274249999999995L 374.17351812744147 56.274249999999995L 374.17351812744147 85L 361.59426812744147 85L 361.59426812744147 35.8095L 372.9531431274414 35.8095L 372.9531431274414 44.915375Q 375.6755181274415 40.12775 380.41620562744146 37.5461875Q 385.15689312744144 34.964625 391.25876812744144 34.964625L 391.25876812744144 34.964625Q 397.4545181274415 34.964625 400.8340181274414 37.968625Q 404.21351812744143 40.972625 405.15226812744146 45.38475L 405.15226812744146 45.38475Q 408.1562681274414 40.3155 412.7561431274414 37.6400625Q 417.3560181274414 34.964625 423.27014312744143 34.964625L 423.27014312744143 34.964625Q 427.77614312744146 34.964625 430.68626812744145 36.654375Q 433.59639312744144 38.344125 435.1922681274415 41.0665Q 436.78814312744146 43.788875 437.39833062744145 47.26225Q 438.00851812744145 50.735625 438.00851812744145 54.302875L 438.00851812744145 54.302875ZZM 471.80351812744146 85.93875L 471.80351812744146 85.93875Q 465.88939312744145 85.93875 461.10176812744146 83.9204375Q 456.31414312744147 81.902125 452.93464312744146 78.42875Q 449.55514312744145 74.955375 447.72458062744147 70.3555Q 445.8940181274414 65.755625 445.8940181274414 60.686375L 445.8940181274414 60.686375Q 445.8940181274414 55.429375 447.67764312744146 50.7825625Q 449.46126812744143 46.13575 452.84076812744144 42.6154375Q 456.22026812744144 39.095125 461.05483062744145 37.029875Q 465.88939312744145 34.964625 471.89739312744143 34.964625L 471.89739312744143 34.964625Q 477.90539312744147 34.964625 482.64608062744145 37.029875Q 487.3867681274414 39.095125 490.7193306274414 42.5685Q 494.0518931274415 46.041875 495.78858062744143 50.64175Q 497.52526812744145 55.241625 497.52526812744145 60.217L 497.52526812744145 60.217Q 497.52526812744145 61.437375 497.47833062744144 62.563874999999996Q 497.4313931274414 63.690375 497.24364312744143 64.441375L 497.24364312744143 64.441375L 459.22426812744146 64.441375Q 459.5058931274415 67.3515 460.63239312744145 69.6045Q 461.75889312744147 71.8575 463.54251812744144 73.453375Q 465.32614312744147 75.04925 467.57914312744145 75.894125Q 469.83214312744144 76.739 472.2728931274415 76.739L 472.2728931274415 76.739Q 476.0278931274415 76.739 479.36045562744147 74.9084375Q 482.69301812744146 73.077875 483.91339312744145 70.073875L 483.91339312744145 70.073875L 494.7090181274415 73.077875Q 491.9866431274414 78.710375 486.02558062744146 82.3245625Q 480.06451812744143 85.93875 471.80351812744146 85.93875ZZM 459.03651812744147 56.274249999999995L 484.57051812744146 56.274249999999995Q 484.10114312744145 50.735625 480.48695562744143 47.4030625Q 476.8727681274415 44.0705 471.70964312744144 44.0705L 471.70964312744144 44.0705Q 469.17501812744143 44.0705 466.96895562744146 44.9623125Q 464.76289312744143 45.854125 463.0731431274414 47.45Q 461.3833931274415 49.045875 460.30383062744147 51.298875Q 459.22426812744146 53.551874999999995 459.03651812744147 56.274249999999995L 459.03651812744147 56.274249999999995Z" style="fill: #2e4152;"></path>
            </g>
        </g>
    </g>
    <g style="mix-blend-mode: source-over;" transform="matrix(1,0,0,1,724,389)">
        <g>
            <g style="paint-order: stroke fill markers;">
                <path d="M 60.58215362548828 61.66875L 60.58215362548828 61.66875Q 56.16840362548828 61.66875 52.79121612548828 59.4284375Q 49.414028625488285 57.188125 47.34090362548828 53.7775L 47.34090362548828 53.7775L 47.34090362548828 75.244375L 42.79340362548828 75.244375L 42.79340362548828 26.158125L 46.87277862548828 26.158125L 46.87277862548828 32.912499999999994Q 49.01277862548828 29.635624999999997 52.423403625488284 27.595937499999998Q 55.83402862548829 25.55625 59.84652862548828 25.55625L 59.84652862548828 25.55625Q 63.45777862548828 25.55625 66.46715362548828 27.0609375Q 69.47652862548829 28.565624999999997 71.68340362548828 31.073437499999997Q 73.89027862548829 33.58125 75.12746612548828 36.858125Q 76.36465362548827 40.135 76.36465362548827 43.6125L 76.36465362548827 43.6125Q 76.36465362548827 47.290625 75.22777862548828 50.567499999999995Q 74.09090362548828 53.844375 71.98434112548829 56.31875Q 69.87777862548828 58.793125 66.96871612548829 60.2309375Q 64.05965362548828 61.66875 60.58215362548828 61.66875ZZM 59.31152862548828 57.65625L 59.31152862548828 57.65625Q 62.12027862548828 57.65625 64.42746612548828 56.4525Q 66.73465362548828 55.24875 68.37309112548829 53.2759375Q 70.01152862548828 51.303125 70.88090362548829 48.7953125Q 71.75027862548828 46.2875 71.75027862548828 43.6125L 71.75027862548828 43.6125Q 71.75027862548828 40.803749999999994 70.74715362548828 38.2625Q 69.74402862548828 35.72125 68.00527862548829 33.781875Q 66.26652862548829 31.842499999999998 63.89246612548828 30.705624999999998Q 61.51840362548828 29.568749999999998 58.77652862548828 29.568749999999998L 58.77652862548828 29.568749999999998Q 57.037778625488286 29.568749999999998 55.13184112548828 30.2709375Q 53.225903625488286 30.973125 51.587466125488284 32.1434375Q 49.94902862548828 33.31375 48.77871612548828 34.8853125Q 47.60840362548828 36.456875 47.34090362548828 38.195625L 47.34090362548828 38.195625L 47.34090362548828 48.895624999999995Q 48.14340362548828 50.768125 49.38059112548828 52.373125Q 50.617778625488285 53.978125 52.18934112548828 55.1484375Q 53.76090362548828 56.31875 55.56652862548828 56.9875Q 57.37215362548828 57.65625 59.31152862548828 57.65625ZZM 98.90152862548828 61.66875L 98.90152862548828 61.66875Q 95.08965362548828 61.66875 91.94652862548828 60.2309375Q 88.80340362548829 58.793125 86.49621612548829 56.31875Q 84.18902862548829 53.844375 82.91840362548828 50.567499999999995Q 81.64777862548829 47.290625 81.64777862548829 43.679375L 81.64777862548829 43.679375Q 81.64777862548829 40.00125 82.95184112548829 36.724374999999995Q 84.25590362548829 33.4475 86.56309112548828 30.973125Q 88.87027862548828 28.49875 92.01340362548828 27.027499999999996Q 95.15652862548828 25.55625 98.90152862548828 25.55625L 98.90152862548828 25.55625Q 102.64652862548829 25.55625 105.82309112548829 27.027499999999996Q 108.99965362548829 28.49875 111.30684112548829 30.973125Q 113.61402862548829 33.4475 114.91809112548829 36.724374999999995Q 116.22215362548829 40.00125 116.22215362548829 43.679375L 116.22215362548829 43.679375Q 116.22215362548829 47.290625 114.9515286254883 50.567499999999995Q 113.68090362548828 53.844375 111.37371612548829 56.31875Q 109.06652862548829 58.793125 105.88996612548829 60.2309375Q 102.71340362548828 61.66875 98.90152862548828 61.66875ZZM 86.26215362548828 43.74625L 86.26215362548828 43.74625Q 86.26215362548828 46.68875 87.26527862548829 49.1965625Q 88.26840362548829 51.704375 89.97371612548828 53.6103125Q 91.67902862548829 55.51625 93.98621612548828 56.58625Q 96.29340362548828 57.65625 98.90152862548828 57.65625L 98.90152862548828 57.65625Q 101.50965362548828 57.65625 103.81684112548828 56.5528125Q 106.12402862548828 55.449375 107.86277862548829 53.543437499999996Q 109.60152862548829 51.6375 110.60465362548828 49.09625Q 111.6077786254883 46.555 111.6077786254883 43.6125L 111.6077786254883 43.6125Q 111.6077786254883 40.736875 110.60465362548828 38.1621875Q 109.60152862548829 35.5875 107.86277862548829 33.6815625Q 106.12402862548828 31.775624999999998 103.81684112548828 30.6721875Q 101.50965362548828 29.568749999999998 98.90152862548828 29.568749999999998L 98.90152862548828 29.568749999999998Q 96.29340362548828 29.568749999999998 94.01965362548829 30.6721875Q 91.74590362548828 31.775624999999998 90.00715362548829 33.715Q 88.26840362548829 35.654375 87.26527862548829 38.2290625Q 86.26215362548828 40.803749999999994 86.26215362548828 43.74625ZZM 141.23340362548828 26.024375L 141.23340362548828 30.170624999999998Q 136.61902862548828 30.304374999999997 133.2084036254883 32.711875Q 129.7977786254883 35.119375 128.3934036254883 39.332499999999996L 128.3934036254883 39.332499999999996L 128.3934036254883 61L 123.84590362548829 61L 123.84590362548829 26.158125L 128.1259036254883 26.158125L 128.1259036254883 34.5175Q 130.0652786254883 30.505 133.3421536254883 28.231249999999996Q 136.61902862548828 25.957499999999996 140.3640286254883 25.957499999999996L 140.3640286254883 25.957499999999996Q 140.89902862548828 25.957499999999996 141.23340362548828 26.024375L 141.23340362548828 26.024375ZZM 162.83402862548832 55.65L 164.0377786254883 59.328125Q 163.6365286254883 59.52875 162.8674661254883 59.863125Q 162.0984036254883 60.1975 161.0952786254883 60.531875Q 160.0921536254883 60.86625 158.8215286254883 61.13375Q 157.5509036254883 61.40125 156.14652862548832 61.40125L 156.14652862548832 61.40125Q 154.6752786254883 61.40125 153.3377786254883 61Q 152.0002786254883 60.59875 150.9971536254883 59.7628125Q 149.9940286254883 58.926875 149.3921536254883 57.65625Q 148.7902786254883 56.385625 148.7902786254883 54.71375L 148.7902786254883 54.71375L 148.7902786254883 29.769374999999997L 143.9752786254883 29.769374999999997L 143.9752786254883 26.158125L 148.7902786254883 26.158125L 148.7902786254883 14.388124999999995L 153.3377786254883 14.388124999999995L 153.3377786254883 26.158125L 161.36277862548832 26.158125L 161.36277862548832 29.769374999999997L 153.3377786254883 29.769374999999997L 153.3377786254883 53.443125Q 153.4715286254883 55.3825 154.7087161254883 56.2853125Q 155.9459036254883 57.188125 157.5509036254883 57.188125L 157.5509036254883 57.188125Q 159.49027862548832 57.188125 160.9615286254883 56.5528125Q 162.4327786254883 55.9175 162.83402862548832 55.65L 162.83402862548832 55.65ZZM 175.94152862548833 61L 171.39402862548832 61L 171.39402862548832 29.769374999999997L 166.57902862548832 29.769374999999997L 166.57902862548832 26.158125L 171.39402862548832 26.158125L 171.39402862548832 25.221874999999997Q 171.39402862548832 18.801874999999995 174.1359036254883 15.1571875Q 176.8777786254883 11.512499999999996 181.62590362548832 11.512499999999996L 181.62590362548832 11.512499999999996Q 183.69902862548832 11.512499999999996 185.6384036254883 12.114374999999995Q 187.57777862548832 12.716249999999995 188.9821536254883 13.719375L 188.9821536254883 13.719375L 187.57777862548832 16.996249999999996Q 186.64152862548832 16.260624999999997 185.27059112548832 15.859375Q 183.89965362548833 15.458124999999995 182.4952786254883 15.458124999999995L 182.4952786254883 15.458124999999995Q 179.28527862548833 15.458124999999995 177.61340362548833 17.932499999999997Q 175.94152862548833 20.406875 175.94152862548833 25.088124999999998L 175.94152862548833 25.088124999999998L 175.94152862548833 26.158125L 185.57152862548833 26.158125L 185.57152862548833 29.769374999999997L 175.94152862548833 29.769374999999997L 175.94152862548833 61ZZM 204.8984036254883 61.66875L 204.8984036254883 61.66875Q 201.0865286254883 61.66875 197.94340362548832 60.2309375Q 194.8002786254883 58.793125 192.4930911254883 56.31875Q 190.1859036254883 53.844375 188.9152786254883 50.567499999999995Q 187.6446536254883 47.290625 187.6446536254883 43.679375L 187.6446536254883 43.679375Q 187.6446536254883 40.00125 188.9487161254883 36.724374999999995Q 190.2527786254883 33.4475 192.5599661254883 30.973125Q 194.8671536254883 28.49875 198.0102786254883 27.027499999999996Q 201.1534036254883 25.55625 204.8984036254883 25.55625L 204.8984036254883 25.55625Q 208.6434036254883 25.55625 211.8199661254883 27.027499999999996Q 214.9965286254883 28.49875 217.3037161254883 30.973125Q 219.6109036254883 33.4475 220.91496612548832 36.724374999999995Q 222.2190286254883 40.00125 222.2190286254883 43.679375L 222.2190286254883 43.679375Q 222.2190286254883 47.290625 220.9484036254883 50.567499999999995Q 219.67777862548832 53.844375 217.37059112548832 56.31875Q 215.0634036254883 58.793125 211.8868411254883 60.2309375Q 208.71027862548831 61.66875 204.8984036254883 61.66875ZZM 192.2590286254883 43.74625L 192.2590286254883 43.74625Q 192.2590286254883 46.68875 193.2621536254883 49.1965625Q 194.2652786254883 51.704375 195.9705911254883 53.6103125Q 197.6759036254883 55.51625 199.9830911254883 56.58625Q 202.2902786254883 57.65625 204.8984036254883 57.65625L 204.8984036254883 57.65625Q 207.5065286254883 57.65625 209.8137161254883 56.5528125Q 212.1209036254883 55.449375 213.8596536254883 53.543437499999996Q 215.5984036254883 51.6375 216.6015286254883 49.09625Q 217.6046536254883 46.555 217.6046536254883 43.6125L 217.6046536254883 43.6125Q 217.6046536254883 40.736875 216.6015286254883 38.1621875Q 215.5984036254883 35.5875 213.8596536254883 33.6815625Q 212.1209036254883 31.775624999999998 209.8137161254883 30.6721875Q 207.5065286254883 29.568749999999998 204.8984036254883 29.568749999999998L 204.8984036254883 29.568749999999998Q 202.2902786254883 29.568749999999998 200.0165286254883 30.6721875Q 197.7427786254883 31.775624999999998 196.0040286254883 33.715Q 194.2652786254883 35.654375 193.2621536254883 38.2290625Q 192.2590286254883 40.803749999999994 192.2590286254883 43.74625ZZM 230.0434036254883 54.646875L 230.0434036254883 12.181249999999999L 234.5909036254883 12.181249999999999L 234.5909036254883 53.10875Q 234.5909036254883 55.048125 235.66090362548832 56.1515625Q 236.7309036254883 57.255 238.67027862548832 57.255L 238.67027862548832 57.255Q 239.40590362548832 57.255 240.4090286254883 57.054375Q 241.41215362548832 56.85375 242.2815286254883 56.519375L 242.2815286254883 56.519375L 243.08402862548832 60.1975Q 241.81340362548832 60.7325 239.9743411254883 61.066875Q 238.1352786254883 61.40125 236.79777862548832 61.40125L 236.79777862548832 61.40125Q 233.65465362548832 61.40125 231.8490286254883 59.6290625Q 230.0434036254883 57.856875 230.0434036254883 54.646875L 230.0434036254883 54.646875ZZM 252.58027862548832 61L 248.0327786254883 61L 248.0327786254883 26.158125L 252.58027862548832 26.158125L 252.58027862548832 61ZZM 252.58027862548832 18.86875L 248.0327786254883 18.86875L 248.0327786254883 12.181249999999999L 252.58027862548832 12.181249999999999L 252.58027862548832 18.86875ZZM 277.4577786254883 61.66875L 277.4577786254883 61.66875Q 273.6459036254883 61.66875 270.5027786254883 60.2309375Q 267.3596536254883 58.793125 265.0524661254883 56.31875Q 262.7452786254883 53.844375 261.4746536254883 50.567499999999995Q 260.20402862548826 47.290625 260.20402862548826 43.679375L 260.20402862548826 43.679375Q 260.20402862548826 40.00125 261.5080911254883 36.724374999999995Q 262.8121536254883 33.4475 265.1193411254883 30.973125Q 267.4265286254883 28.49875 270.5696536254883 27.027499999999996Q 273.7127786254883 25.55625 277.4577786254883 25.55625L 277.4577786254883 25.55625Q 281.2027786254883 25.55625 284.3793411254883 27.027499999999996Q 287.55590362548827 28.49875 289.86309112548827 30.973125Q 292.1702786254883 33.4475 293.4743411254883 36.724374999999995Q 294.7784036254883 40.00125 294.7784036254883 43.679375L 294.7784036254883 43.679375Q 294.7784036254883 47.290625 293.5077786254883 50.567499999999995Q 292.2371536254883 53.844375 289.9299661254883 56.31875Q 287.6227786254883 58.793125 284.44621612548826 60.2309375Q 281.2696536254883 61.66875 277.4577786254883 61.66875ZZM 264.8184036254883 43.74625L 264.8184036254883 43.74625Q 264.8184036254883 46.68875 265.82152862548827 49.1965625Q 266.8246536254883 51.704375 268.5299661254883 53.6103125Q 270.23527862548826 55.51625 272.5424661254883 56.58625Q 274.8496536254883 57.65625 277.4577786254883 57.65625L 277.4577786254883 57.65625Q 280.0659036254883 57.65625 282.3730911254883 56.5528125Q 284.6802786254883 55.449375 286.4190286254883 53.543437499999996Q 288.1577786254883 51.6375 289.1609036254883 49.09625Q 290.1640286254883 46.555 290.1640286254883 43.6125L 290.1640286254883 43.6125Q 290.1640286254883 40.736875 289.1609036254883 38.1621875Q 288.1577786254883 35.5875 286.4190286254883 33.6815625Q 284.6802786254883 31.775624999999998 282.3730911254883 30.6721875Q 280.0659036254883 29.568749999999998 277.4577786254883 29.568749999999998L 277.4577786254883 29.568749999999998Q 274.8496536254883 29.568749999999998 272.5759036254883 30.6721875Q 270.3021536254883 31.775624999999998 268.56340362548826 33.715Q 266.8246536254883 35.654375 265.82152862548827 38.2290625Q 264.8184036254883 40.803749999999994 264.8184036254883 43.74625ZZM 305.6790286254883 61L 301.7334036254883 61L 301.7334036254883 54.44625L 305.6790286254883 54.44625L 305.6790286254883 61ZZM 312.6340286254882 43.47875L 312.6340286254882 43.47875Q 312.6340286254882 39.800625 313.90465362548827 36.52375Q 315.17527862548826 33.246875 317.48246612548826 30.8059375Q 319.78965362548826 28.364999999999995 322.99965362548824 26.960625Q 326.2096536254882 25.55625 330.08840362548824 25.55625L 330.08840362548824 25.55625Q 335.03715362548826 25.55625 338.7152786254882 27.7965625Q 342.39340362548825 30.036875 344.26590362548825 33.848749999999995L 344.26590362548825 33.848749999999995L 339.85215362548826 35.253125Q 338.38090362548826 32.578125 335.73934112548824 31.073437499999997Q 333.0977786254882 29.568749999999998 329.88777862548824 29.568749999999998L 329.88777862548824 29.568749999999998Q 327.2127786254882 29.568749999999998 324.90559112548823 30.638749999999998Q 322.59840362548823 31.70875 320.89309112548824 33.5478125Q 319.18777862548825 35.386875 318.21809112548823 37.928124999999994Q 317.24840362548827 40.469375 317.24840362548827 43.47875L 317.24840362548827 43.47875Q 317.24840362548827 46.42125 318.2515286254882 49.029375Q 319.25465362548823 51.6375 320.9934036254882 53.543437499999996Q 322.73215362548825 55.449375 325.03934112548825 56.5528125Q 327.34652862548825 57.65625 329.9546536254882 57.65625L 329.9546536254882 57.65625Q 331.6265286254882 57.65625 333.26496612548823 57.188125Q 334.90340362548824 56.72 336.30777862548825 55.8840625Q 337.7121536254882 55.048125 338.7152786254882 53.978125Q 339.71840362548824 52.908125 340.11965362548824 51.704375L 340.11965362548824 51.704375L 344.6002786254883 53.041875Q 343.86465362548824 54.914375 342.46027862548823 56.4859375Q 341.0559036254882 58.0575 339.1499661254882 59.2278125Q 337.2440286254882 60.398125 334.93684112548823 61.0334375Q 332.62965362548823 61.66875 330.1552786254882 61.66875L 330.1552786254882 61.66875Q 326.34340362548824 61.66875 323.13340362548826 60.2309375Q 319.9234036254882 58.793125 317.58277862548823 56.2853125Q 315.24215362548824 53.7775 313.93809112548826 50.500625Q 312.6340286254882 47.223749999999995 312.6340286254882 43.47875ZZM 366.26777862548823 61.66875L 366.26777862548823 61.66875Q 362.45590362548825 61.66875 359.31277862548825 60.2309375Q 356.16965362548825 58.793125 353.86246612548825 56.31875Q 351.55527862548826 53.844375 350.28465362548826 50.567499999999995Q 349.0140286254882 47.290625 349.0140286254882 43.679375L 349.0140286254882 43.679375Q 349.0140286254882 40.00125 350.31809112548825 36.724374999999995Q 351.62215362548824 33.4475 353.92934112548824 30.973125Q 356.23652862548823 28.49875 359.37965362548823 27.027499999999996Q 362.52277862548823 25.55625 366.26777862548823 25.55625L 366.26777862548823 25.55625Q 370.01277862548824 25.55625 373.1893411254882 27.027499999999996Q 376.3659036254882 28.49875 378.6730911254882 30.973125Q 380.98027862548827 33.4475 382.28434112548825 36.724374999999995Q 383.58840362548824 40.00125 383.58840362548824 43.679375L 383.58840362548824 43.679375Q 383.58840362548824 47.290625 382.31777862548824 50.567499999999995Q 381.04715362548825 53.844375 378.73996612548825 56.31875Q 376.43277862548825 58.793125 373.2562161254882 60.2309375Q 370.0796536254882 61.66875 366.26777862548823 61.66875ZZM 353.62840362548826 43.74625L 353.62840362548826 43.74625Q 353.62840362548826 46.68875 354.6315286254882 49.1965625Q 355.6346536254882 51.704375 357.3399661254882 53.6103125Q 359.0452786254882 55.51625 361.35246612548826 56.58625Q 363.65965362548826 57.65625 366.26777862548823 57.65625L 366.26777862548823 57.65625Q 368.87590362548826 57.65625 371.18309112548826 56.5528125Q 373.49027862548826 55.449375 375.22902862548824 53.543437499999996Q 376.9677786254882 51.6375 377.97090362548823 49.09625Q 378.97402862548824 46.555 378.97402862548824 43.6125L 378.97402862548824 43.6125Q 378.97402862548824 40.736875 377.97090362548823 38.1621875Q 376.9677786254882 35.5875 375.22902862548824 33.6815625Q 373.49027862548826 31.775624999999998 371.18309112548826 30.6721875Q 368.87590362548826 29.568749999999998 366.26777862548823 29.568749999999998L 366.26777862548823 29.568749999999998Q 363.65965362548826 29.568749999999998 361.38590362548825 30.6721875Q 359.11215362548825 31.775624999999998 357.3734036254882 33.715Q 355.6346536254882 35.654375 354.6315286254882 38.2290625Q 353.62840362548826 40.803749999999994 353.62840362548826 43.74625ZZM 443.0402786254882 40.603125L 443.0402786254882 61L 438.4927786254882 61L 438.4927786254882 41.539375Q 438.4927786254882 35.45375 436.5534036254882 32.578125Q 434.61402862548823 29.702499999999997 430.80215362548824 29.702499999999997L 430.80215362548824 29.702499999999997Q 428.7959036254882 29.702499999999997 427.0237161254882 30.438125Q 425.2515286254882 31.17375 423.74684112548823 32.51125Q 422.2421536254882 33.848749999999995 421.1052786254882 35.6878125Q 419.96840362548824 37.526875 419.36652862548823 39.73375L 419.36652862548823 39.73375L 419.36652862548823 61L 414.8190286254882 61L 414.8190286254882 41.539375Q 414.8190286254882 35.32 412.9465286254882 32.51125Q 411.0740286254882 29.702499999999997 407.1952786254882 29.702499999999997L 407.1952786254882 29.702499999999997Q 403.24965362548824 29.702499999999997 400.1734036254882 32.444374999999994Q 397.0971536254882 35.18625 395.7596536254882 39.666875L 395.7596536254882 39.666875L 395.7596536254882 61L 391.2121536254882 61L 391.2121536254882 26.158125L 395.3584036254882 26.158125L 395.3584036254882 34.049375Q 397.4984036254882 30.036875 400.97590362548823 27.7965625Q 404.4534036254882 25.55625 408.66652862548824 25.55625L 408.66652862548824 25.55625Q 413.08027862548823 25.55625 415.7218411254882 28.030625Q 418.3634036254882 30.505 418.9652786254882 34.5175L 418.9652786254882 34.5175Q 423.8471536254882 25.55625 432.4071536254882 25.55625L 432.4071536254882 25.55625Q 435.3496536254882 25.55625 437.3893411254882 26.62625Q 439.42902862548823 27.69625 440.66621612548823 29.6690625Q 441.90340362548824 31.641875 442.4718411254882 34.4171875Q 443.0402786254882 37.192499999999995 443.0402786254882 40.603125L 443.0402786254882 40.603125Z" style="fill: #2e4152;"></path>
            </g>
        </g>
    </g>
</svg>